<svg width="64" height="64" viewBox="0 0 64 64" fill="none" xmlns="http://www.w3.org/2000/svg">
<path d="M22 28C21.6044 28 21.2178 28.1173 20.8889 28.3371C20.56 28.5568 20.3036 28.8692 20.1522 29.2346C20.0009 29.6001 19.9613 30.0022 20.0384 30.3902C20.1156 30.7781 20.3061 31.1345 20.5858 31.4142C20.8655 31.6939 21.2219 31.8844 21.6098 31.9616C21.9978 32.0387 22.3999 31.9991 22.7654 31.8478C23.1308 31.6964 23.4432 31.44 23.6629 31.1111C23.8827 30.7822 24 30.3956 24 30C24 29.4696 23.7893 28.9609 23.4142 28.5858C23.0391 28.2107 22.5304 28 22 28ZM46 20H44V14C44 13.4696 43.7893 12.9609 43.4142 12.5858C43.0391 12.2107 42.5304 12 42 12H22C21.4696 12 20.9609 12.2107 20.5858 12.5858C20.2107 12.9609 20 13.4696 20 14V20H18C16.4087 20 14.8826 20.6321 13.7574 21.7574C12.6321 22.8826 12 24.4087 12 26V38C12 39.5913 12.6321 41.1174 13.7574 42.2426C14.8826 43.3679 16.4087 44 18 44H20V50C20 50.5304 20.2107 51.0391 20.5858 51.4142C20.9609 51.7893 21.4696 52 22 52H42C42.5304 52 43.0391 51.7893 43.4142 51.4142C43.7893 51.0391 44 50.5304 44 50V44H46C47.5913 44 49.1174 43.3679 50.2426 42.2426C51.3679 41.1174 52 39.5913 52 38V26C52 24.4087 51.3679 22.8826 50.2426 21.7574C49.1174 20.6321 47.5913 20 46 20ZM24 16H40V20H24V16ZM40 48H24V40H40V48ZM48 38C48 38.5304 47.7893 39.0391 47.4142 39.4142C47.0391 39.7893 46.5304 40 46 40H44V38C44 37.4696 43.7893 36.9609 43.4142 36.5858C43.0391 36.2107 42.5304 36 42 36H22C21.4696 36 20.9609 36.2107 20.5858 36.5858C20.2107 36.9609 20 37.4696 20 38V40H18C17.4696 40 16.9609 39.7893 16.5858 39.4142C16.2107 39.0391 16 38.5304 16 38V26C16 25.4696 16.2107 24.9609 16.5858 24.5858C16.9609 24.2107 17.4696 24 18 24H46C46.5304 24 47.0391 24.2107 47.4142 24.5858C47.7893 24.9609 48 25.4696 48 26V38Z" fill="black" stroke="white"/>
<circle cx="32" cy="32" r="30.5" stroke="black" stroke-width="3"/>
</svg>
